<svg width="29" height="19" viewBox="0 0 32 19" fill="none" xmlns="http://www.w3.org/2000/svg">
<path d="M15.6561 7.97L15.1311 10.364H17.5671V14.102H14.3331L13.7241 17H9.8811L10.4901 14.102H7.2771L6.66809 17H2.84609L3.45509 14.102H0.431095V10.364H4.25309L4.77809 7.97H1.81709V4.232H5.5761L6.16409 1.46H9.9861L9.3981 4.232H12.6111L13.1991 1.46H17.0421L16.4541 4.232H18.9531V7.97H15.6561ZM11.8131 7.97H8.60009L8.07509 10.364H11.2881L11.8131 7.97ZM20.7369 13.703C22.0949 12.639 23.2079 11.722 24.0759 10.952C24.9439 10.182 25.6719 9.391 26.2599 8.579C26.8479 7.753 27.1419 6.969 27.1419 6.227C27.1419 5.779 27.0369 5.429 26.8269 5.177C26.6309 4.925 26.3369 4.799 25.9449 4.799C25.5389 4.799 25.2239 4.974 24.9999 5.324C24.7759 5.66 24.6709 6.157 24.6849 6.815H20.6949C20.7369 5.569 21.0099 4.54 21.5139 3.728C22.0179 2.902 22.6759 2.3 23.4879 1.922C24.2999 1.53 25.2029 1.334 26.1969 1.334C27.9189 1.334 29.1999 1.761 30.0399 2.615C30.8799 3.469 31.2999 4.575 31.2999 5.933C31.2999 7.389 30.8099 8.754 29.8299 10.028C28.8639 11.302 27.6529 12.443 26.1969 13.451H31.4469V16.79H20.7369V13.703Z" fill="white"/>
</svg>
