<svg width="33" height="19" viewBox="0 0 33 19" fill="none" xmlns="http://www.w3.org/2000/svg">
<path d="M15.7948 7.97L15.2698 10.364H17.7058V14.102H14.4718L13.8628 17H10.0198L10.6288 14.102H7.41576L6.80676 17H2.98476L3.59376 14.102H0.569765V10.364H4.39176L4.91676 7.97H1.95576V4.232H5.71476L6.30276 1.46H10.1248L9.53677 4.232H12.7498L13.3378 1.46H17.1808L16.5928 4.232H19.0918V7.97H15.7948ZM11.9518 7.97H8.73876L8.21376 10.364H11.4268L11.9518 7.97ZM21.1906 6.227C21.2466 4.645 21.7366 3.434 22.6606 2.594C23.5846 1.74 24.8726 1.313 26.5246 1.313C27.6026 1.313 28.5196 1.502 29.2756 1.88C30.0456 2.244 30.6266 2.748 31.0186 3.392C31.4106 4.022 31.6066 4.736 31.6066 5.534C31.6066 6.486 31.3756 7.249 30.9136 7.823C30.4516 8.383 29.9266 8.761 29.3386 8.957V9.041C31.0326 9.671 31.8796 10.875 31.8796 12.653C31.8796 13.535 31.6766 14.312 31.2706 14.984C30.8646 15.656 30.2766 16.181 29.5066 16.559C28.7366 16.937 27.8196 17.126 26.7556 17.126C25.0056 17.126 23.6196 16.706 22.5976 15.866C21.5896 15.012 21.0646 13.71 21.0226 11.96H25.0336C25.0056 12.52 25.1246 12.954 25.3906 13.262C25.6566 13.57 26.0556 13.724 26.5876 13.724C26.9936 13.724 27.3086 13.598 27.5326 13.346C27.7706 13.094 27.8896 12.758 27.8896 12.338C27.8896 11.806 27.7146 11.414 27.3646 11.162C27.0286 10.91 26.4756 10.784 25.7056 10.784H24.9706V7.445H25.6846C26.2166 7.459 26.6646 7.375 27.0286 7.193C27.4066 6.997 27.5956 6.612 27.5956 6.038C27.5956 5.604 27.4906 5.282 27.2806 5.072C27.0706 4.848 26.7836 4.736 26.4196 4.736C26.0136 4.736 25.7126 4.883 25.5166 5.177C25.3346 5.457 25.2296 5.807 25.2016 6.227H21.1906Z" fill="white"/>
</svg>
