<svg width="87" height="87" viewBox="0 0 105 105" fill="none" xmlns="http://www.w3.org/2000/svg">
<path d="M66.5479 68.7012C65.4924 69.5167 64.0627 70.4228 62.6855 70.4443C62.189 70.4521 62.136 70.3473 62.2241 69.812C62.3138 69.2673 62.4499 68.4731 62.7767 68.0062C62.9422 67.7698 62.9059 68.5797 62.8735 68.8664C62.727 70.1624 62.3295 71.3775 62.002 72.6318C61.8513 73.2087 61.7218 73.8126 61.6374 74.4035C61.633 74.4339 61.6618 74.518 61.6715 74.4889C61.9562 73.6349 62.1423 72.7413 62.4007 71.8799C62.9483 70.0547 63.716 68.3409 64.3717 66.5592C64.3912 66.5063 64.6755 65.6241 64.6965 66.1491C64.7795 68.225 64.3408 70.2906 63.9787 72.3242C63.7401 73.6642 63.5821 75.0261 63.2438 76.346C62.972 77.4064 62.6366 78.4416 62.4577 79.5247C62.0664 81.8939 62.1646 84.3122 62.0589 86.7025C61.9936 88.1802 62.0361 89.6668 62.0361 91.1458C62.0361 91.4337 61.8159 94.0354 62.1501 94.1081C63.3581 94.3707 64.8358 93.9867 66.0238 93.9258C69.9107 93.7265 73.7971 93.4768 77.679 93.2308C80.0116 93.083 82.2647 92.9754 84.5264 92.3421C85.221 92.1476 84.9855 91.3129 84.8966 90.7357C84.6612 89.2051 84.6973 87.6834 84.6973 86.1385C84.6973 83.0161 83.8022 80.0009 83.5465 76.9043C83.3611 74.6589 83.6154 72.3788 83.7972 70.1367C83.8824 69.0858 83.961 68.0121 83.9795 66.958C83.9808 66.8829 83.9795 66.3396 83.9795 66.7643C83.9795 68.2568 84.0465 69.7447 84.0763 71.2362C84.1065 72.7468 84.2682 74.1763 84.4352 75.6795C84.4615 75.9158 84.7492 76.6886 84.3555 76.6992C83.532 76.7215 82.694 76.7229 81.8717 76.6821C80.1366 76.5961 78.2039 76.4263 76.5511 75.8903C75.1103 75.423 73.3435 74.6822 73.2357 72.9736C73.1805 72.0987 73.2598 71.2264 73.361 70.3589C73.4095 69.9435 73.3374 69.3343 73.6629 69.0088C74.119 68.5527 75.0251 68.3912 75.6169 68.2113C76.4931 67.9448 77.3738 67.8055 78.2886 67.784C79.0887 67.7652 79.8603 67.8408 80.6527 67.9378C80.9623 67.9757 82.3238 67.941 82.4984 68.2568C82.724 68.6652 82.0567 69.9267 81.923 70.2962C81.6153 71.1464 81.199 71.9796 80.9489 72.8483C80.7731 73.4588 80.4496 74.3892 80.9945 74.8763C81.0484 74.9245 81.6829 75.49 81.7521 75.4346C81.8181 75.3817 81.5641 73.6871 81.5641 73.5775C81.5641 72.5186 81.7044 71.4658 81.8262 70.4159C81.9163 69.6381 82.2335 68.9437 82.373 68.1828C82.4202 67.9253 82.6869 66.4321 82.2021 66.4624C81.3604 66.515 80.6775 67.5162 80.1742 68.0745C79.3652 68.972 78.3868 69.8806 77.8328 70.9684C77.0706 72.4651 77.8956 73.4932 78.0265 74.9333C78.066 75.3676 78.4148 74.7525 78.5107 74.6256C79.3419 73.5275 80.0356 72.3334 80.8577 71.2305C81.2366 70.7222 80.0797 70.9378 79.7754 70.957C79.1367 70.9974 78.6237 71.3869 78.1234 71.7489C77.9767 71.855 77.6354 72.0117 77.5423 72.1875C76.976 73.2573 79.2833 70.4954 80.2539 69.7721C81.8344 68.5945 76.8422 71.8868 75.5941 73.4123C75.24 73.845 74.974 74.3075 74.694 74.7852C74.6535 74.8543 74.7017 74.6246 74.7168 74.5459C74.9076 73.5538 75.1254 72.5647 75.389 71.5894C75.7001 70.4385 76.0416 69.2351 76.6764 68.2113C76.7435 68.1031 76.8271 68.0494 76.7505 68.2682C76.5786 68.7593 76.261 69.2 76.0042 69.6468C75.53 70.4719 74.9718 71.4105 74.9959 72.3983C75.0182 73.3127 75.5503 74.0893 76.1068 74.7738C76.1587 74.8377 76.665 75.432 76.665 74.9731C76.665 73.5258 75.7224 71.9937 75.3548 70.6209C75.1472 69.8457 74.8789 68.9091 74.9561 68.0859C74.98 67.8301 75.2595 67.587 75.2181 67.3283C75.0627 66.3568 72.2693 67.1026 71.6976 67.3397C70.8683 67.6835 70.1131 68.1569 69.1911 68.234C68.1373 68.3222 67.4127 67.8533 66.5479 67.3625C66.4449 67.304 66.0987 67.2155 66.2061 67.2656C67.0479 67.6585 67.4382 68.2411 68.4961 68.0973C69.8285 67.9162 71.1758 67.2761 72.2616 66.4966C72.2934 66.4738 72.3833 66.3981 72.3527 66.4225C71.8898 66.7929 71.4581 67.2042 71.014 67.596C69.7696 68.6941 68.4549 69.6087 67.1289 70.5811C66.2067 71.2573 68.4189 68.4868 68.2853 67.3511C68.2656 67.1831 67.1954 68.1093 67.1175 68.1771C66.693 68.5466 66.1672 68.8919 65.7845 69.305C64.9616 70.1933 63.9586 72.4881 64.9642 73.5775C65.9227 74.6159 67.3235 72.9248 67.915 72.3356C69.0369 71.2182 70.1494 70.1712 71.4355 69.2423C72.0028 68.8327 72.5744 68.4336 73.1104 67.9834C73.1391 67.9592 71.6162 69.4841 71.5666 69.5272C69.927 70.9488 68.0439 72.0213 66.3883 73.4066C66.0231 73.7122 65.7917 74.5313 65.7446 74.9788C65.7231 75.1838 66.0697 75.233 66.2061 75.2409C67.4976 75.3151 68.6826 74.3976 69.4645 73.4635C70.0656 72.7455 70.2935 71.9547 70.7064 71.1507C70.9487 70.6789 71.3406 70.7497 71.5381 71.2305C71.7412 71.7249 72.7782 76.1495 71.652 76.0612C69.8563 75.9204 68.4908 74.4434 66.6618 74.4434C66.6459 74.4434 66.0087 74.4412 66.0579 74.5459C66.1179 74.6734 66.3282 74.6316 66.4681 74.6484C67.3546 74.7548 68.2429 74.833 69.1284 74.9504C69.6619 75.0211 71.2674 75.1611 70.7292 75.1611C70.4352 75.1611 70.1866 75.2433 69.9146 75.3662C69.0254 75.7682 68.2382 76.4315 67.2656 76.6309C66.7897 76.7284 66.2904 76.6992 65.8073 76.6992C64.4542 76.6992 64.9413 73.4822 65.0439 72.7116C65.1109 72.2087 65.2723 70.9339 65.7731 70.5697C65.9863 70.4146 66.3899 71.2875 66.4225 71.3558C66.8465 72.2432 66.9926 73.2404 67.203 74.1927C67.5223 75.6379 66.4787 77.1427 65.8757 78.3854C65.1379 79.9056 64.0826 81.4717 63.8135 83.1706C63.6477 84.2167 63.6768 85.3111 63.6768 86.3664C63.6768 88.1133 63.6768 89.8603 63.6768 91.6073C63.6768 91.6572 63.6734 92.5734 63.654 92.57C63.0501 92.4634 62.6607 90.208 62.6172 89.8242C62.4133 88.0263 62.5761 85.9534 63.1527 84.2301C63.5846 82.9393 64.164 81.7199 64.5256 80.402C64.6609 79.9088 64.8014 79.4502 64.987 78.9779C65.0286 78.8718 65.0264 78.8016 65.0952 79.012C65.3496 79.7903 65.4863 80.6304 65.5908 81.4388C65.8525 83.4631 65.8977 85.7072 65.4997 87.7165C65.14 89.5325 65.0098 91.3775 65.0098 93.2251C65.0098 93.542 65.0081 93.479 64.987 93.1624C64.9013 91.8767 64.9166 90.6081 65.0895 89.3286C65.3306 87.5446 65.6781 85.7291 66.1491 83.9909C66.6115 82.2841 67.1924 80.6714 67.4251 78.9095C67.4448 78.7609 67.3607 78.3956 67.4935 78.4652C67.5552 78.4975 67.5596 78.5882 67.5846 78.6532C67.7924 79.1917 68.0014 79.8854 68.1543 80.4077C68.6372 82.0571 69.275 83.9155 69.0999 85.6657C68.9706 86.9593 68.3877 88.2092 67.9948 89.4368C67.6522 90.5076 67.2802 91.5707 67.0036 92.6611C66.9664 92.8078 66.752 94.0966 66.6618 93.8403C66.1693 92.4406 65.8982 90.8147 66.0238 89.3343C66.2041 87.2087 66.7609 85.0554 67.5106 83.068C67.7864 82.3368 67.9443 81.7042 68.029 80.9375C68.1055 80.2447 68.1437 79.4345 68.4391 78.7899C68.6221 78.3906 69.3683 79.7704 69.3848 79.7982C70.1058 81.0152 70.607 82.2882 70.8431 83.6833C71.2263 85.9479 71.04 87.9173 70.6551 90.1546C70.5766 90.6107 70.5825 91.2895 70.3418 91.7041C69.9676 92.3486 70.0505 90.2266 70.0911 89.4824C70.2273 86.9915 70.5146 84.3841 71.0026 81.9287C71.1092 81.3925 71.1696 80.8264 71.3159 80.2995C71.4105 79.9588 71.5246 80.4182 71.5837 80.5615C72.6889 83.2432 73.1035 86.0345 72.6432 88.9014C72.4999 89.7941 72.3258 90.6968 72.0394 91.556C71.8226 92.2064 71.6063 92.3596 70.9342 92.382C70.4726 92.3974 70.0062 92.3973 69.5443 92.3877C68.9555 92.3754 69.3302 90.3427 69.3392 90.1831C69.4834 87.629 69.726 85.072 70.0342 82.5326C70.1526 81.5564 70.1767 79.7302 70.8545 78.8867C71.1797 78.482 72.5199 79.0246 72.8654 79.1146C73.7209 79.3374 74.5577 79.5534 75.446 79.5703C77.1767 79.6033 78.7721 78.92 80.4419 78.5563C82.0816 78.1992 83.811 78.0322 85.4891 78.0322C85.8093 78.0322 85.7044 78.2619 85.6087 78.5335C85.0617 80.0867 83.9749 81.3707 83.1535 82.7775C81.8924 84.9373 80.8473 87.1666 80.909 89.6989C80.9183 90.0793 80.8939 91.1555 81.0856 90.8268C81.2054 90.6215 81.0358 90.3523 81.0457 90.1147C81.0823 89.2365 81.3399 88.396 81.4844 87.5342C81.7317 86.0585 81.5973 84.6285 81.5299 83.1478C81.4773 81.9895 81.6008 82.9432 81.6667 83.4782C81.855 85.008 82.0605 86.5387 81.9002 88.0811C81.7902 89.1396 81.4255 90.1934 81.416 91.2598C81.4116 91.7604 81.5636 91.9825 82.0825 91.9604C82.784 91.9306 82.7426 91.4119 82.7035 90.8268C82.5423 88.4209 82.3389 86.0814 82.3389 83.6662C82.3389 82.3692 82.3389 81.0723 82.3389 79.7754C82.3389 79.5132 82.5294 78.8369 82.3161 78.9893C82.1958 79.0751 82.1908 79.257 82.1224 79.388C81.808 79.9898 81.4215 80.4844 80.8805 80.9033C79.8475 81.7034 78.2716 82.0927 76.9784 82.2705C76.4836 82.3385 75.7315 82.4664 75.2409 82.2933C75.0293 82.2186 74.733 81.9538 74.9902 81.7578C75.7312 81.1933 76.8057 80.8856 77.6847 80.6299C78.0717 80.5173 79.2789 80.0446 79.1715 80.8122C78.9935 82.0854 79.0618 83.0198 79.519 84.2358C79.979 85.459 80.1855 86.5958 80.1855 87.8988C80.1855 89.3296 79.9729 90.4572 79.4735 91.818C79.3215 92.232 79.2175 92.5117 79.0918 92.9232C79.0342 93.1118 79.1102 93.5779 78.9323 93.4928C78.6499 93.3578 78.1875 91.9575 78.1746 91.9206C77.6559 90.4354 77.4129 88.914 77.1891 87.3633C77.0177 86.1754 76.82 84.9914 76.6536 83.8029C76.644 83.7343 76.5398 82.7144 76.7106 82.7946C76.8773 82.8728 77.1804 83.4395 77.2005 83.4782C77.6087 84.2623 77.8872 85.0937 78.0949 85.9505C78.2515 86.5965 78.3851 87.2611 78.4652 87.9215C78.5593 88.6979 78.7568 89.4791 78.7671 90.2629C78.7758 90.9263 78.3625 90.8496 77.8385 90.8496C77.2298 90.8496 76.9866 90.6752 76.6764 90.0977C75.7608 88.3927 75.1668 86.3774 74.882 84.4694C74.8168 84.0323 74.542 82.5339 75.0358 83.7972C75.6387 85.3394 76.1678 86.932 76.46 88.5653C76.5795 89.2336 76.6442 89.9425 76.5739 90.6217C76.5171 91.1704 76.368 92.4644 75.8219 92.7865C75.5642 92.9385 75.3879 91.1574 75.3833 91.0718C75.3196 89.8927 75.3247 88.7036 75.2865 87.5228C75.232 85.8429 75.2071 84.1365 75.2979 82.4585C75.411 80.3647 76.0803 78.5243 76.8302 76.591C77.7733 74.1596 78.7804 71.7465 79.8096 69.3506C80.6416 67.4136 81.6538 65.5167 81.9458 63.4033C82.2157 61.45 81.976 59.4117 81.2223 57.5814C80.966 56.9589 80.6684 57.9944 80.5501 58.2593C80.3578 58.6902 80.2917 59.1535 80.1172 59.5866C79.8825 60.1689 79.5383 60.4286 80.3906 60.4525C82.4687 60.5107 84.7139 60.395 86.6341 61.3354C87.1532 61.5897 87.9956 62.1832 88.1608 62.8109C88.1704 62.8473 88.1619 62.9308 88.0924 62.9134C87.405 62.7415 86.4195 62.0114 85.9049 61.7114C83.1517 60.1062 80.4175 58.4809 77.8613 56.5674C75.3148 54.661 73.0366 52.4887 70.7178 50.3239C68.9596 48.6825 67.1673 47.0914 65.4427 45.4134C65.2235 45.2001 64.093 44.1093 63.8135 43.8298C63.6522 43.6685 63.2747 43.1414 63.0273 43.0094C62.8349 42.9068 62.8564 43.4931 62.8564 43.5791" stroke="#C0FDFB" stroke-width="3" stroke-linecap="round"/>
<path d="M74.1357 24.8144C73.8325 25.2004 73.4981 26.6133 73.8509 27.0475C74.0244 27.261 74.3312 27.4104 74.5915 27.4805C75.3975 27.6975 75.5631 26.6841 75.7764 26.1247C76.1026 25.269 76.7904 24.0937 76.7904 23.1453C76.7904 22.8744 76.2955 23.3729 76.0726 23.527C75.4686 23.9446 74.87 24.411 74.1984 24.7176C73.7152 24.9382 73.3735 24.6964 72.9395 24.4385C72.1917 23.9942 71.295 23.4749 70.695 22.832C70.4183 22.5355 71.4867 22.6381 71.8913 22.6099C72.8865 22.5404 73.9581 22.5806 74.9219 22.2852C75.1092 22.2277 76.6186 21.7474 75.7194 21.7383C74.8453 21.7294 73.9782 21.7188 73.1104 21.818C72.5957 21.8768 72.0709 21.8366 71.5609 21.7611C71.3167 21.7249 70.6307 21.7741 71.3102 21.687C72.0319 21.5945 70.5682 21.7151 70.3589 21.7326C69.869 21.7734 69.3632 21.7383 68.8721 21.7383C68.3221 21.7383 68.4647 21.5691 68.7809 21.1116C68.936 20.8874 69.1787 20.5601 69.4816 20.5135C70.2302 20.3983 71.0549 20.5247 71.8115 20.5021C72.622 20.4779 73.3898 20.2276 74.2041 20.2059C75.3048 20.1765 76.2965 20.2701 77.3714 20.4964C77.6457 20.5542 78.055 20.5128 78.1576 20.7926C78.3904 21.4277 78.5177 22.0492 78.6247 22.7181C78.7143 23.2784 79.059 23.7657 79.3424 24.2448C79.4982 24.508 79.7563 25.3589 79.7754 25.0537C79.837 24.0673 79.5673 22.9654 79.2285 22.0459C79.1332 21.7871 79.6699 22.3775 79.8779 22.5586C80.4656 23.07 81.0851 23.5962 81.5129 24.2562C81.8217 24.7326 81.715 25.2514 81.6724 25.7886C81.5888 26.8409 81.468 26.5367 80.966 25.7145C80.5039 24.9577 80.0535 24.1919 79.6615 23.396C79.1364 22.3299 80.2775 23.8807 80.402 24.0169C81.1381 24.8224 83.2415 27.3317 82.5212 26.512C81.9854 25.9024 81.7833 24.5694 81.5869 23.8688C81.0308 21.8847 80.462 19.8681 80.2425 17.8133C80.1722 17.1546 80.1095 16.4952 80.0374 15.8366C80.0334 15.7998 79.8789 15.0782 80.1172 15.3922C80.9694 16.5156 81.5647 17.8381 82.111 19.1292C82.1342 19.1842 82.5937 20.2732 82.7034 20.2458C82.7742 20.2281 82.3426 18.912 82.3275 18.8558C82.2181 18.4495 82.2092 18.3629 82.1338 17.9785C82.112 17.8673 82.1554 17.5974 82.054 17.6481C81.7279 17.8112 83.0566 20.6428 83.0566 21.0775C83.0566 21.5218 82.7126 20.2581 82.5439 19.847C82.0665 18.6836 81.6432 17.4987 81.1882 16.3265C80.9111 15.6128 80.676 14.89 80.4419 14.1618C80.4386 14.1517 80.2555 13.7649 80.3223 13.9567C80.5203 14.5261 80.9047 15.0436 81.2166 15.5518C81.9458 16.7396 82.4392 18.0344 82.8345 19.3685C83.0579 20.1224 83.083 20.9927 83.2389 21.7725C83.2877 22.0161 82.9116 21.3968 82.7718 21.1914C81.9605 19.9995 81.1303 18.8193 80.3564 17.6025C79.6765 16.5334 79.175 15.3372 78.4424 14.3099C77.921 13.5787 77.2955 12.8449 76.6195 12.2477C76.4923 12.1354 76.0723 11.8602 76.2321 11.9173C76.9539 12.1751 77.6939 13.1588 78.2259 13.6833C79.0213 14.4674 79.8004 15.2624 80.3735 16.2296C80.6845 16.7544 79.1019 16.4948 78.8411 16.4632C77.2402 16.2695 75.7138 15.9025 74.0902 15.8935C73.456 15.8901 72.8217 15.8935 72.1875 15.8935C71.5257 15.8935 72.5144 15.8347 72.609 15.8195C74.1149 15.5778 75.218 14.6182 76.5112 13.8997C77.2446 13.4923 75.3515 13.3735 75.258 13.3529C73.9158 13.0559 72.5874 12.7019 71.2419 12.4186C70.6083 12.2852 69.6953 12.9786 69.2594 13.3529C68.8157 13.7339 68.1345 14.2457 69.1227 14.3099C70.5582 14.4031 74.6193 12.6139 73.2642 13.0965C70.4971 14.082 67.6766 14.8862 64.9015 15.8366C64.3744 16.0171 63.7993 16.2755 64.1097 16.8848C64.5951 17.8377 64.8461 19.0493 64.93 20.109C64.9754 20.6825 65.2017 21.6051 64.93 22.1484C64.4725 23.0634 64.803 20.0211 65.2376 19.095C65.6484 18.22 66.2785 17.3371 67.0833 16.7822C67.7304 16.3361 68.7378 16.2897 69.4816 16.0986C70.2205 15.9088 70.9586 15.7517 71.7147 15.6486C71.8297 15.6329 72.5872 15.4527 72.0052 15.6771C70.3089 16.3311 68.4718 17.0216 67.089 18.2406C65.5569 19.5912 64.8871 21.6795 65.1921 23.6751C65.4413 25.306 66.0008 26.9083 66.5706 28.4489C66.9008 29.3416 67.2227 30.2359 67.5277 31.1377C67.6454 31.4858 67.746 32.1535 68.029 32.4365C69.0358 33.4433 66.2266 30.2043 65.5851 28.9331C65.2023 28.1745 64.9771 27.347 64.6395 26.569C64.4922 26.2296 64.2236 25.7648 64.2236 25.3841C64.2236 25.0127 64.8497 25.7937 65.1123 26.0563C66.7241 27.6681 68.2061 29.3684 69.7152 31.0693C70.0814 31.4821 70.5255 31.7802 70.957 32.1175C71.0032 32.1536 71.8332 32.7846 71.8001 32.6644C71.2491 30.6624 70.308 28.7261 69.681 26.7399C69.26 25.4064 68.8921 24.0562 68.6214 22.6839C68.5635 22.3904 68.5209 21.4971 68.4961 21.7952C68.4572 22.2626 68.4983 22.7514 68.4961 23.2194C68.4922 24.03 68.4533 24.8367 68.4163 25.6462C68.405 25.895 68.5407 27.0345 68.1315 26.3184C67.4432 25.1138 65.6131 21.3871 66.3826 22.5415C67.5686 24.3204 68.3339 26.3084 69.6639 28.0102C70.2407 28.7483 70.8309 29.4379 71.259 30.2775C71.6466 31.038 71.9076 31.8823 72.3926 32.5903C73.1304 33.6676 73.0579 32.1175 73.0021 31.639C72.6357 28.4979 71.7873 25.321 70.6722 22.3649C70.6092 22.1979 70.4111 21.7021 70.4557 21.875C71.8795 27.3844 68.2629 13.139 70.8887 23.47C71.5295 25.9915 72.0889 28.5356 72.8141 31.0351C73.1366 32.1467 73.5082 33.2331 74.0218 34.2708C74.0672 34.3625 74.1037 34.5994 74.1813 34.5329C74.2297 34.4914 74.229 34.4136 74.2383 34.3506C74.3271 33.7469 74.3327 33.1337 74.4035 32.5277C74.6483 30.4302 75.0217 28.1763 76.2264 26.3867C76.7377 25.6273 77.5391 25.0627 78.2658 24.5239C78.3471 24.4636 78.5902 24.3137 78.5449 24.4043C78.4574 24.5794 78.0227 25.076 77.9696 25.1392C77.1302 26.1358 76.2026 27.1533 75.8675 28.4489C75.6079 29.4527 75.9352 30.4479 76.2663 31.3883C76.5586 32.2188 76.783 33.1822 77.6107 32.1403C78.487 31.0371 79.2689 29.8846 80.2425 28.859C80.4681 28.6215 81.1607 27.9243 80.9375 28.1641C80.2117 28.9436 79.4815 29.7241 78.8298 30.568C78.3774 31.1538 77.8271 31.8516 77.8271 32.6359C77.8271 33.2113 79.484 31.3846 79.4963 31.3713C80.5718 30.2077 81.3967 28.8938 82.2363 27.5602C82.2448 27.5468 82.3801 27.3088 82.3161 27.2982C82.0118 27.2475 81.0247 27.9858 80.835 28.0843C79.8566 28.5925 78.8584 29.0469 77.8158 29.4059C77.5226 29.5069 77.056 29.8896 77.286 29.5255C78.0246 28.3561 78.632 27.1178 79.4051 25.9652C79.5541 25.743 80.0789 25.001 80.2938 24.6948C80.3954 24.5501 80.5492 24.3145 80.2995 24.729C79.416 26.1951 78.4372 27.6025 77.6221 29.1097C77.0708 30.1289 76.7139 31.2291 76.1808 32.2542C75.43 33.6981 74.1587 34.3063 72.6318 33.6442C71.9678 33.3562 71.3734 32.9219 70.7064 32.6473C70.6512 32.6246 70.5442 32.561 70.5298 32.6188C70.4813 32.8126 70.8542 32.8521 71.014 32.972C71.43 33.284 72.6067 33.9569 72.6774 34.5671C72.85 36.0553 72.3464 37.5743 72.5521 39.0731C72.5659 39.1738 72.7678 39.6536 72.5692 39.3522C71.9764 38.4528 71.4412 37.5057 70.9912 36.5267C70.7539 36.0104 70.507 35.4068 71.2191 35.9513C72.2758 36.7594 73.1733 37.7561 74.113 38.6914C74.6644 39.2403 75.2184 39.8029 75.8105 40.3092C75.9048 40.3898 76.1825 40.597 76.141 40.4801C75.7183 39.2913 74.9962 38.1206 74.4206 37.0052C74.1011 36.3862 73.7536 35.7818 73.4408 35.1595C73.3679 35.0145 73.1421 34.7016 73.304 34.6924C73.7512 34.6668 74.8334 36.1789 75.0472 36.4128C75.1626 36.5389 76.1873 37.6708 76.3574 37.8597C76.5123 38.0317 76.7611 38.1582 76.8132 38.3838C76.8513 38.5491 76.5494 38.1697 76.4258 38.0534C76.122 37.7674 75.6381 37.2885 75.3548 37.0052C75.144 36.7944 74.6928 36.3405 74.4661 36.0937C74.2657 35.8755 74.2579 35.8073 74.5345 36.1051C75.2714 36.8987 75.9541 37.7577 76.5568 38.6572C76.7713 38.9774 77.1998 39.4491 76.5967 39.4718C75.42 39.5162 74.2119 38.9032 73.1958 38.4009C71.5726 37.5984 69.6904 36.614 68.855 34.9088C68.4288 34.039 68.2994 33.0087 68.2056 32.0548C68.2005 32.0033 68.2123 31.8518 68.2284 31.901C68.3683 32.3308 68.4772 32.7702 68.5986 33.2056C69.0879 34.9596 69.5416 36.727 70.0911 38.4635C70.1319 38.5923 70.3241 39.2285 70.4614 39.4547C70.4738 39.4751 70.5208 39.5125 70.5241 39.4889C70.6327 38.714 70.5607 37.9244 70.5697 37.1419C70.5867 35.6628 70.6101 33.0679 70.6266 31.5934C70.636 30.754 70.5227 29.9015 70.6722 29.0755C70.7125 28.853 70.9208 29.4571 71.0026 29.668C71.344 30.5481 71.8224 31.9815 72.0964 32.8011C72.9484 35.3503 73.738 37.9219 74.7852 40.4004C74.8651 40.5897 75.7793 42.1206 75.651 42.4284C75.6039 42.5414 74.6813 42.3237 74.6143 42.3258C73.2382 42.3697 72.2956 44.52 71.7546 45.459C70.7006 47.288 69.808 49.2031 68.8379 51.0758C68.771 51.205 68.5153 51.5059 68.5075 51.3607C68.3947 49.2748 68.7232 47.0339 68.8493 44.9634C68.8714 44.5996 69.0831 41.2211 69.117 40.4232C69.1468 39.7208 69.2048 39.4616 68.9176 40.1725C67.8847 42.7294 66.9744 45.3553 66.0693 47.9598C65.9185 48.394 65.6139 49.2479 65.4997 49.7998C65.4456 50.061 65.6993 49.3041 65.7731 49.0478C66.2591 47.3602 66.7059 45.6615 67.1859 43.9722C67.7644 41.936 68.26 39.6563 69.1569 37.7116C69.1971 37.6245 69.3853 37.3191 69.4645 37.6204C69.5856 38.0812 69.6753 39.7697 69.681 39.9333C69.7869 43.0034 69.6779 46.1134 69.043 49.1276C68.9801 49.426 68.8951 49.7197 68.8037 50.0106C68.7695 50.1193 68.7332 50.4166 68.667 50.3239C68.5597 50.1737 68.6328 49.9559 68.6328 49.7713C68.6328 49.2718 68.648 48.7723 68.667 48.2731C68.8124 44.4451 69.0773 40.6202 69.5898 36.8229C69.6508 36.3711 69.7115 35.3812 70.0798 36.4298C70.8949 38.7512 70.9558 41.3467 70.9627 43.7785C70.9652 44.6409 70.8754 45.5026 70.8944 46.3647C70.8957 46.426 70.9108 46.5918 70.9456 46.5413C71.0638 46.3701 71.1009 46.1552 71.1735 45.9603C72.0447 43.6224 72.8672 41.2694 73.868 38.9819C74.0216 38.6309 74.1899 38.2865 74.3522 37.9394C74.395 37.8479 74.5736 37.6208 74.4832 37.666C74.3739 37.7207 74.352 37.8722 74.2839 37.9736C74.014 38.3754 73.7476 38.7797 73.4692 39.1756C71.08 42.5738 68.4794 45.817 66.0807 49.2073C65.596 49.8925 65.2409 50.3603 64.9528 51.0929C64.9052 51.2139 64.8438 51.5938 64.9072 51.4803C65.1764 50.9986 65.2783 50.4405 65.4427 49.9137C66.2232 47.4127 66.9684 44.901 67.7669 42.4056C68.3412 40.6111 68.2959 40.7741 68.8037 39.3294C68.9031 39.0466 68.5785 39.885 68.4619 40.1611C67.2504 43.0305 65.9283 45.8486 64.4743 48.6035C64.3307 48.8755 63.9096 49.6792 63.973 49.3782C64.1903 48.346 64.5645 47.3529 64.8844 46.3476C65.6297 44.0057 66.088 42.661 66.8896 40.332C67.124 39.6512 67.3708 38.9746 67.6017 38.2926C67.8747 37.4867 68.0653 37.153 67.5277 37.854C65.7624 40.1558 64.051 42.5133 62.3551 44.8665C61.6192 45.8877 59.5406 49.0412 60.2474 47.9997C61.0845 46.7661 61.6626 45.3091 62.3039 43.9722C62.6031 43.3483 63.0156 42.4588 63.3691 41.8188C63.4377 41.6948 63.4998 41.5631 63.597 41.46C63.7742 41.272 63.4048 41.9413 63.278 42.1663C62.6366 43.3046 61.9004 44.3996 61.0335 45.3792C60.9445 45.4799 60.6882 45.7777 60.7373 45.6527C60.9771 45.0423 61.305 44.4704 61.5804 43.8753C62.5605 41.758 63.5277 39.6327 64.4629 37.4951C64.5107 37.3859 64.6852 37.0818 64.5996 37.1647C64.2762 37.478 64.0218 37.8554 63.7337 38.2015C62.009 40.2733 60.3212 42.3669 58.7663 44.5703C57.6091 46.21 58.8847 44.4468 59.222 44.0576C60.5447 42.5317 61.9417 40.9891 63.5742 39.7851C64.4919 39.1084 65.559 38.6554 66.4681 37.9736C66.6905 37.8068 66.7529 37.691 66.7529 37.4268C66.7529 36.9001 65.6958 37.5345 65.1978 37.7059C62.6422 38.5853 60.0746 39.4303 57.4788 40.1839C56.6388 40.4278 56.3313 40.5031 55.8496 41.2435C54.4705 43.3635 53.706 46.4066 55.485 48.5693C55.9831 49.1748 56.1487 48.581 56.2939 48.0452C56.5133 47.2362 56.8579 44.5908 56.9661 43.8639C57.119 42.8379 57.2148 42.072 57.4561 41.1068C57.4929 40.9594 57.5466 40.8166 57.5985 40.6738C57.6658 40.4887 57.7229 40.3543 57.6782 40.6624C57.4485 42.2475 56.9191 43.7843 56.4933 45.3223C56.1849 46.4362 55.7527 47.6804 56.2655 48.8029C56.4133 49.1266 56.8588 49.9853 57.2909 49.515C57.7982 48.9627 58.6383 47.3511 58.8631 46.9458C61.5822 42.0434 58.7651 47.0414 61.5234 42.0923C61.8646 41.4802 62.2019 40.8658 62.5602 40.2637C62.6959 40.0356 62.7858 39.7532 63.0046 39.6029C63.1193 39.524 62.9697 39.8812 62.9248 40.013C62.7641 40.4847 62.5719 40.945 62.3893 41.4087C61.4106 43.8945 60.3235 46.3339 59.3188 48.8086C58.9977 49.5995 58.743 50.3403 58.5498 51.1613C58.5158 51.3059 58.4838 50.8706 58.4701 50.7227C58.2782 48.6508 58.1598 46.569 58.0713 44.4906C58.0188 43.2567 58.0003 42.032 58.0371 40.7991C58.0466 40.4804 58.5237 40.3012 58.7321 40.1497C59.8302 39.3515 61.0386 38.561 62.002 37.5976C62.6327 36.9669 60.3676 38.3159 59.5752 38.7256C57.0428 40.0349 60.6318 38.4739 60.7031 38.7028C60.8462 39.1619 60.3412 39.5974 60.0993 40.013C59.8845 40.382 58.6449 42.3956 58.4587 42.7018C57.4041 44.4361 55.4954 46.7754 55.6388 48.9396C55.8115 51.5444 58.6329 53.251 58.846 55.8667C59.0593 58.4845 57.0845 60.4344 56.4478 62.8223C56.2838 63.4369 56.1364 64.2591 56.3167 64.8901C56.3412 64.9757 56.5022 65.1193 56.5389 65.0382C56.7482 64.5755 56.7042 64.036 56.7839 63.5343C57.204 60.8872 57.9503 58.3119 58.4017 55.673C58.4218 55.5554 58.4871 52.8133 58.6182 54.4141C58.8611 57.3824 58.6178 60.2439 58.4701 63.1982C58.4312 63.9758 58.335 65.4334 58.8574 66.0864C58.87 66.1022 58.9517 66.1645 58.8859 66.1206C58.4861 65.8541 58.4577 64.7802 58.4245 64.4344C58.2738 62.8658 58.4456 61.4154 58.9201 59.917C59.4159 58.3512 59.7995 56.9517 59.7575 55.2913C59.7273 54.0985 59.5352 52.9288 59.3132 51.7594C59.2281 51.3116 59.0625 49.9592 59.0625 50.415C59.0625 55.1308 59.0977 59.9281 59.6891 64.611C59.7814 65.3417 60.4661 66.9698 59.222 66.7301C58.443 66.5801 57.9052 65.8744 57.4674 65.2718C56.6705 64.1748 56.2515 62.9867 55.804 61.7228C55.3562 60.4579 54.8164 59.2127 54.5394 57.8947C54.2901 56.7088 54.2818 55.4996 54.2375 54.2944C54.1996 53.2667 54.1028 52.2447 54.0495 51.2183C53.9999 50.2643 54.2332 51.5066 54.2546 51.5999C54.4926 52.6414 54.6728 53.6947 54.9723 54.7217C55.2073 55.5274 55.5805 56.2964 55.7699 57.1143C55.9583 57.9281 55.9798 58.7858 56.2484 59.5809C56.2967 59.7239 56.3705 59.9478 56.5332 60.0252C56.5641 60.0399 56.628 60.0529 56.6357 60.0195C56.7693 59.4454 56.5972 58.8407 56.5446 58.2536C56.3225 55.7736 56.1018 53.292 55.861 50.8138C55.8148 50.3384 55.6941 48.912 55.7015 49.3896C55.733 51.4379 55.4883 53.5142 55.3369 55.5534C55.2484 56.7461 55.1845 60.3207 55.0635 59.1309C54.8153 56.6906 54.8315 54.1616 54.8128 51.7139C54.7996 49.9789 54.8773 48.2759 55.0407 46.5527C55.201 44.8621 54.9216 49.9491 54.7616 51.6398C54.5483 53.8926 54.4161 56.1906 54.8185 58.4302C55.0768 59.8673 55.6171 61.3691 55.5534 62.845C55.5444 63.0522 55.6001 63.7615 55.4508 63.9388C55.1914 64.2468 54.8632 63.3608 54.6989 62.9932C54.5571 62.676 53.551 59.9917 54.4596 59.8144C55.4567 59.6199 57.0477 60.4254 57.889 60.7373C60.0936 61.5547 62.2373 62.5402 64.4515 63.3293C66.7605 64.1521 68.9302 63.513 71.2077 62.9248C73.5674 62.3153 76.0143 62.0404 78.4367 61.831C80.7951 61.6272 83.1359 61.5938 85.4606 62.0931C85.5293 62.1079 85.8991 62.1956 86.0189 62.1956C86.0886 62.1956 85.9033 62.1133 85.8366 62.0931C85.1134 61.8741 84.304 61.6819 83.5465 61.6715C80.5635 61.6308 77.9432 63.634 74.9902 63.5514C71.9684 63.4669 81.0463 63.2878 84.0592 63.5343C85.4401 63.6473 86.901 63.7679 88.195 64.292C88.6241 64.4658 89.0185 64.7068 89.4425 64.8901C89.4652 64.8999 89.8857 64.9951 89.6818 65.0155C89.1822 65.0654 88.6327 65.1119 88.1437 65.2205C88.0323 65.2453 88.0811 65.5581 88.0811 65.6136C88.0811 65.6845 88.1097 66.6512 88.1608 66.6276C88.3303 66.5494 88.5981 66.0641 88.7191 65.9326C89.0144 65.6116 89.3272 65.289 89.6989 65.0553C90.3233 64.6629 91.5895 64.1767 91.8123 63.409C91.9651 62.8827 92.0202 62.2818 92.137 61.7399C92.3792 60.617 92.6514 59.4613 92.7979 58.3219C92.9877 56.8451 92.9133 55.3238 92.7979 53.8444C92.6292 51.684 92.526 49.5162 92.4674 47.3503C92.4319 46.0332 92.5377 44.6328 92.0003 43.3968C91.7334 42.7829 91.3814 42.0252 90.9977 41.477C89.0205 38.6525 85.4127 37.7344 82.1566 37.7344C81.1317 37.7344 80.5578 37.9542 79.7982 38.7484C79.1406 39.4358 78.7606 40.2114 78.2829 41.0156C77.1587 42.9081 75.3967 44.251 73.5718 45.4248C72.0237 46.4206 70.362 46.8821 68.7297 47.675C68.2297 47.9178 67.767 48.2014 67.3625 48.5864C66.9418 48.9867 66.549 49.7048 65.9497 49.8568C64.9631 50.1069 64.3896 48.9154 64.104 48.1991C64.0759 48.1285 63.6822 46.493 63.5514 46.6154C62.2873 47.798 61.2359 49.8804 61.0563 51.6113C60.821 53.8794 62.6817 55.572 63.3919 57.5814C63.4528 57.7535 64.0396 59.1741 64.0413 59.165C64.0918 58.8996 64.0431 57.6655 64.0413 57.6156C64.0039 56.5251 63.9386 55.4358 63.8932 54.3457C63.8459 53.2102 63.909 52.0603 63.7337 50.9334C63.6755 50.5594 63.4073 51.6182 63.2837 51.9759C62.8096 53.3478 62.3398 54.6723 62.264 56.1344C62.1756 57.8396 62.1486 59.4828 63.1071 60.9538C63.2795 61.2183 63.6503 61.9564 64.0299 62.0133C64.4672 62.0789 64.8006 61.2705 64.9072 60.9993C65.7977 58.7336 64.0258 56.5529 64.4515 54.2432C64.6084 53.3918 64.9037 52.2807 65.5111 51.6227C65.8117 51.297 66.629 50.7738 66.7757 51.4974C66.9925 52.5669 66.8789 53.7433 66.9694 54.8299C67.0678 56.0112 67.2367 57.1846 67.4137 58.3561C67.6617 59.9973 67.7416 61.6468 67.9207 63.2951C67.9721 63.7677 67.1377 62.745 66.8099 62.4007C65.9872 61.5369 65.0148 60.7097 64.8389 59.4613C64.6677 58.2466 65.0711 57.0723 65.437 55.9351C65.444 55.9135 65.6355 55.2435 65.7332 55.1147C66.0818 54.6553 66.4706 56.0187 66.7074 56.5446C67.627 58.5869 68.2954 60.7309 69.2025 62.7767C69.2887 62.9712 69.4239 63.4582 69.5671 63.3008C69.8402 63.0004 69.8261 62.3164 69.8861 61.945C69.9778 61.3773 70.2204 61.5278 70.7861 61.5234C72.1737 61.5127 73.5676 61.5308 74.9447 61.3297C76.2873 61.1337 77.5751 60.6964 78.9095 60.4639C80.848 60.126 83.0156 60.4643 84.8966 59.8144C86.0137 59.4285 81.6186 55.6077 80.9432 55.2059C79.8273 54.542 78.3078 57.1776 79.1602 57.7865C80.2819 58.5877 81.5245 54.6876 82.111 56.4648C82.5236 57.715 82.7228 59.1223 82.8744 60.4297C82.9111 60.7466 82.7832 59.798 82.7262 59.484C82.3928 57.6456 81.9604 55.8372 81.3591 54.0666C81.05 53.1564 80.6096 51.5291 80.0146 53.195C79.6062 54.3386 79.1546 57.9342 79.633 56.818C79.972 56.0271 79.8468 53.6871 79.821 53.2918C78.9431 39.8608 79.9665 57.746 79.1602 48.7516C79.0922 47.9933 79.9622 50.0466 80.3337 50.7113C80.9455 51.8061 82.0487 53.7386 82.8573 54.8185C83.557 55.7531 83.46 55.2992 83.2845 54.471C83.0975 53.5883 82.2849 50.6991 82.1053 50.0732C81.5979 48.305 81.2644 47.1204 80.6242 45.4419C80.438 44.9539 79.8437 43.5327 79.9007 44.0519C80.0361 45.284 80.5626 46.4421 80.9546 47.618C81.6321 49.6506 82.0569 50.8267 82.8288 52.7734C83.4974 54.4598 83.3064 53.893 83.8257 55.1489C83.8762 55.2711 84.0272 55.6375 83.9681 55.5192C83.6464 54.8758 83.4393 54.1812 83.1706 53.514C81.8856 50.3232 80.6089 47.0915 78.9323 44.0804C78.8157 43.8709 78.6836 43.6703 78.5506 43.4709C78.5011 43.3966 78.4699 43.2311 78.3854 43.2601C78.2967 43.2905 78.3551 43.4456 78.3512 43.5392C78.3399 43.8105 78.3413 44.0823 78.3398 44.3538C78.3351 45.2387 78.3621 46.1239 78.3398 47.0085C78.334 47.239 78.256 47.8655 78.1348 47.6693C77.7889 47.1092 77.6085 46.4625 77.3486 45.8577C77.1845 45.4756 77.024 45.0919 76.853 44.7127C76.5476 44.0352 76.4395 43.2806 76.0384 44.576C75.2599 47.0907 74.8742 49.7107 74.2668 52.2721C73.887 53.8733 72.9202 58.6629 72.9053 57.0174C72.8956 55.9529 73.8039 52.8589 74.113 52.1411C74.642 50.9124 74.8032 50.4923 75.651 51.2069C75.7095 51.2561 76.2871 52.5613 75.5656 50.8822C75.3619 50.4081 75.1064 49.383 74.939 50.7056C74.8285 51.5781 74.8531 54.1464 74.8364 54.9837C74.7886 57.3909 74.6568 55.8135 74.6143 55.0407C74.5875 54.5547 74.5385 52.9887 74.5459 52.4316C74.5481 52.2635 74.6312 51.8022 74.7054 51.9531C75.1412 52.8395 75.3176 53.9301 75.5029 54.8926C75.7606 56.2306 75.0724 52.1229 74.3408 50.9733C74.1413 50.6598 73.7168 50.5042 73.4635 50.2327C73.2519 50.0059 72.6148 48.8051 72.3128 48.763C72.0622 48.728 71.5176 50.5187 71.4811 50.6315C71.0869 51.8495 71.0329 52.9045 71.3387 54.1463C71.3889 54.3503 71.6984 56.0103 72.0793 56.0262C72.4867 56.0432 72.5567 53.8313 72.5635 53.7077C72.5802 53.4028 72.7973 51.1933 72.3185 51.0018C71.7735 50.7838 70.8872 54.6322 70.8431 54.9268C70.7307 55.6782 70.7078 56.3907 71.3558 56.8636C71.9285 57.2815 72.5291 57.677 73.2471 57.7978C74.1378 57.9478 75.463 57.7979 75.9245 56.875C76.0901 56.5437 76.0975 56.0052 76.0726 55.6559C76.0575 55.4451 76.0139 55.2372 75.9757 55.0293C75.9353 54.8091 75.633 54.3499 75.8561 54.3685C76.1582 54.3937 76.208 54.8622 76.3916 55.1033C76.8753 55.7389 77.1733 56.1438 77.9069 56.556C79.8936 57.6722 82.1417 57.22 84.2529 56.8465C85.7631 56.5793 87.0293 56.4218 88.1437 57.6497C88.989 58.5811 89.6083 59.8286 90.0863 60.9823C90.4115 61.7674 90.6383 62.5989 90.7756 63.4375C90.7783 63.4543 90.8918 63.7999 90.7015 63.6369C90.4818 63.4486 89.9994 62.8269 89.8926 62.6912C89.366 62.022 88.9043 61.2784 88.326 60.6518C87.9906 60.2885 87.9968 59.5097 87.9216 59.0511C87.9049 58.9495 87.64 57.9479 87.8646 57.8548C88.1806 57.7238 88.8052 57.9014 89.1178 57.9574C90.0521 58.1247 90.4962 58.3595 91.0433 59.1992C91.4828 59.8738 91.1655 59.6916 90.9066 59.0625C90.3334 57.6697 89.9324 56.1538 89.6533 54.6761C89.4302 53.4943 89.4182 52.3076 89.4141 51.11C89.4122 50.5821 89.4141 50.0542 89.4141 49.5264C89.4141 49.2293 89.2616 48.2673 89.4596 47.9826C89.6339 47.7321 90.5498 49.9029 90.5534 49.9137C90.9159 51.0012 91.0216 52.1116 91.106 53.2462C91.1657 54.0494 91.2314 54.8468 91.4136 55.6331C91.4378 55.7379 91.8058 56.618 91.4421 56.5161C90.2738 56.189 89.1696 55.0469 88.5083 54.095C87.6197 52.8159 87.4141 51.516 87.745 50.022C87.9795 48.9629 88.3179 47.9498 88.4741 46.8717C88.628 45.8098 88.6909 44.7372 88.7988 43.6702C88.8407 43.2558 88.8087 42.5831 89.0039 42.2005C89.0523 42.1057 89.212 42.2911 89.266 42.3828C89.4783 42.7438 89.7643 43.4083 89.904 43.7614C90.5372 45.3621 90.9101 46.9339 91.2655 48.5921C91.3312 48.8989 91.5307 49.378 91.049 48.9339C89.9838 47.9519 89.1069 46.7495 88.3146 45.5444C87.2838 43.9765 86.3823 41.1797 84.5378 40.3662C83.0281 39.7004 80.5096 40.1104 79.2513 41.1751C78.679 41.6594 80.8406 40.9583 80.9147 40.9245C82.479 40.2108 84.1154 39.523 85.8822 39.7282C86.7155 39.825 87.3776 40.2351 87.9899 40.7878C88.0501 40.8421 89.069 41.6989 88.5938 41.7277C87.0744 41.8198 85.442 41.6183 84.2017 42.7189C83.5799 43.2706 83.504 44.057 83.6548 44.838C83.9977 46.6139 84.9768 48.1649 85.2214 49.9821C85.4223 51.4752 85.3297 52.9306 84.8226 54.3457C84.5366 55.1439 84.4912 54.6908 84.3555 53.9014C83.9708 51.6632 83.8814 49.4202 83.6548 47.168C83.4517 45.1495 82.6478 43.347 82.111 41.4144C82.0934 41.3512 82.042 41.1667 82.0369 41.2321C82.018 41.4782 82.031 41.7258 82.0256 41.9727C82.0108 42.6363 81.9528 43.2974 81.9344 43.9608C81.9222 44.4017 81.9324 44.8057 82.0996 45.2197C82.1324 45.3009 82.6066 46.148 82.4642 45.5159C82.2276 44.4663 81.7004 43.4472 81.2223 42.491C81.0747 42.1957 81.0155 41.8413 80.6641 41.8359C80.4171 41.8322 79.718 41.7217 79.9235 41.8587C80.0768 41.9609 80.288 41.8049 80.4704 41.779C81.1113 41.6878 81.9074 41.5799 82.5439 41.6195C84.2118 41.7232 85.6635 42.4469 86.7367 43.7272C87.0746 44.1304 87.8381 45.1969 87.312 45.1969C86.1684 45.1969 85.3271 43.7616 84.5605 43.0892C84.2787 42.8419 83.8818 42.3486 83.4668 42.3486" stroke="#C0FDFB" stroke-width="3" stroke-linecap="round"/>
<circle cx="29.9414" cy="75.0586" r="18.457" fill="#C0FDFB"/>
<path d="M29.9194 53.9113C18.2466 53.9113 8.75 63.4079 8.75 75.0806C8.75 86.7534 18.2466 96.25 29.9194 96.25C41.5921 96.25 51.0887 86.7534 51.0887 75.0806C51.0887 63.4079 41.5921 53.9113 29.9194 53.9113ZM44.0718 63.4177L41.5343 69.7601L35.7762 72.0633L31.3306 68.7298V61.6734L36.3393 57.9165C39.3764 59.0554 42.0423 60.9593 44.0718 63.4177ZM34.0065 74.2649L32.9974 79.3145H26.8427L25.8323 74.2649L29.9194 71.1996L34.0065 74.2649ZM29.9194 56.7339C30.9256 56.7339 31.905 56.8369 32.8675 56.9935L29.9194 59.2036L26.9712 56.9935C27.9337 56.8369 28.9131 56.7339 29.9194 56.7339ZM23.4994 57.9165L28.5081 61.6734V68.7298L24.0625 72.0647L18.3044 69.7615L15.7669 63.4192C17.7964 60.9593 20.4623 59.0554 23.4994 57.9165ZM13.8546 66.2389L15.5185 70.3994L11.653 73.4915C11.8788 70.8806 12.6466 68.4236 13.8546 66.2389ZM14.4841 84.9597C12.9909 82.6353 12.0002 79.9595 11.6869 77.079L17.4577 72.4627L23.0407 74.6954L24.1796 80.3843L20.746 84.9597H14.4841ZM16.7111 87.7823H20.4962L22.0302 91.6196C20.0319 90.6613 18.231 89.3629 16.7111 87.7823ZM34.2605 92.8869C32.8661 93.227 31.4167 93.4274 29.9194 93.4274C28.422 93.4274 26.9726 93.227 25.5782 92.8869L23.0563 86.5827L26.3911 82.1371H33.4476L36.7825 86.5827L34.2605 92.8869ZM37.8071 91.6196L39.3425 87.7823H43.1276C41.6077 89.3629 39.8069 90.6613 37.8071 91.6196ZM45.356 84.9597H39.0927L35.6605 80.3843L36.7994 74.6954L42.4968 72.4161L48.228 75.8554C48.0869 79.1974 47.0581 82.3093 45.356 84.9597ZM48.0573 72.4627L44.378 70.2554L45.9841 66.2375C47.0313 68.1329 47.7355 70.2357 48.0573 72.4627Z" fill="black"/>
<path d="M83.5484 34.1532H81.6361C84.5194 31.8232 86.371 28.2625 86.371 24.2742V20.0403C86.371 13.8151 81.3058 8.75 75.0806 8.75H72.2581C66.0329 8.75 60.9677 13.8151 60.9677 20.0403V24.2742C60.9677 28.2625 62.8194 31.8232 65.7026 34.1532H63.7903C56.7861 34.1532 51.0887 39.8506 51.0887 46.8548V60.9677C51.0887 65.6377 54.8865 69.4355 59.5565 69.4355V96.25H87.7823V69.4355C92.4522 69.4355 96.25 65.6377 96.25 60.9677V46.8548C96.25 39.8506 90.5526 34.1532 83.5484 34.1532ZM63.7903 20.0403C63.7903 15.3704 67.5881 11.5726 72.2581 11.5726H75.0806C79.7506 11.5726 83.5484 15.3704 83.5484 20.0403V22.3379C83.2026 22.0472 82.9373 21.6591 82.8216 21.1976L82.7792 21.0254C82.2204 18.7829 80.2149 17.2177 77.9032 17.2177H69.4355C67.1238 17.2177 65.1183 18.7829 64.5581 21.0296L64.5185 21.1933C64.4014 21.6577 64.1361 22.0458 63.7903 22.3379V20.0403ZM63.8665 25.4498C65.5107 24.9403 66.8204 23.6179 67.2565 21.8736L67.296 21.7099C67.5429 20.7262 68.4222 20.0403 69.4355 20.0403H77.9032C78.9165 20.0403 79.7958 20.7262 80.0413 21.7056L80.0837 21.8778C80.5183 23.6194 81.828 24.9403 83.4722 25.4498C82.8879 30.3442 78.7175 34.1532 73.6694 34.1532C68.6212 34.1532 64.4508 30.3427 63.8665 25.4498ZM77.6436 36.9758C77.0593 38.6143 75.5069 39.7984 73.6694 39.7984C71.8319 39.7984 70.2794 38.6143 69.6952 36.9758H77.6436ZM59.5565 66.6129C56.4431 66.6129 53.9113 64.0811 53.9113 60.9677V58.1452H59.5565V66.6129ZM59.5565 55.3226H53.9113V52.5H59.5565V55.3226ZM72.2581 93.4274H62.379V79.3145H72.2581V93.4274ZM84.9597 93.4274H75.0806V79.3145H84.9597V93.4274ZM84.9597 76.4919H75.0806V72.2581H72.2581V76.4919H62.379V66.6129H84.9597V76.4919ZM93.4274 60.9677C93.4274 64.0811 90.8956 66.6129 87.7823 66.6129V58.1452H93.4274V60.9677ZM93.4274 55.3226H87.7823V52.5H93.4274V55.3226ZM93.4274 49.6774H87.7823V44.0323H84.9597V63.7903H62.379V44.0323H59.5565V49.6774H53.9113V46.8548C53.9113 41.4087 58.3442 36.9758 63.7903 36.9758H66.7554C67.4117 40.1921 70.2611 42.621 73.6694 42.621C77.0776 42.621 79.927 40.1921 80.5833 36.9758H83.5484C88.9946 36.9758 93.4274 41.4087 93.4274 46.8548V49.6774Z" fill="black"/>
<path d="M76.4919 45.4436H70.8468C69.2901 45.4436 68.0242 46.7095 68.0242 48.2661V58.1452C68.0242 59.7018 69.2901 60.9677 70.8468 60.9677H76.4919C78.0486 60.9677 79.3145 59.7018 79.3145 58.1452V48.2661C79.3145 46.7095 78.0486 45.4436 76.4919 45.4436ZM70.8468 58.1452V48.2661H76.4919L76.4948 58.1452H70.8468Z" fill="black"/>
</svg>
