<svg width="90" height="90" viewBox="0 0 109 109" fill="none" xmlns="http://www.w3.org/2000/svg">
<path d="M93.1042 27.25H15.8958L13.625 36.3333L24.9792 43.1458L20.4375 36.3333H88.5625L84.0208 43.1458L95.375 36.3333L93.1042 27.25Z" fill="black"/>
<path d="M20.4375 36.3333H88.5625L79.4792 63.5833H29.5208L20.4375 36.3333Z" fill="#C0FDFB"/>
<path d="M54.5 72.6667C59.5166 72.6667 63.5834 68.5999 63.5834 63.5833C63.5834 58.5667 59.5166 54.5 54.5 54.5C49.4834 54.5 45.4167 58.5667 45.4167 63.5833C45.4167 68.5999 49.4834 72.6667 54.5 72.6667Z" fill="#FFB74D"/>
<path d="M81.75 72.6667C86.7666 72.6667 90.8334 68.5999 90.8334 63.5833C90.8334 58.5667 86.7666 54.5 81.75 54.5C76.7334 54.5 72.6667 58.5667 72.6667 63.5833C72.6667 68.5999 76.7334 72.6667 81.75 72.6667Z" fill="#FFB74D"/>
<path d="M27.25 72.6667C32.2666 72.6667 36.3334 68.5999 36.3334 63.5833C36.3334 58.5667 32.2666 54.5 27.25 54.5C22.2334 54.5 18.1667 58.5667 18.1667 63.5833C18.1667 68.5999 22.2334 72.6667 27.25 72.6667Z" fill="#FFB74D"/>
<path d="M40.875 95.375C47.1457 95.375 52.2291 90.2916 52.2291 84.0208C52.2291 77.7501 47.1457 72.6667 40.875 72.6667C34.6042 72.6667 29.5208 77.7501 29.5208 84.0208C29.5208 90.2916 34.6042 95.375 40.875 95.375Z" fill="#FFB74D"/>
<path d="M68.125 95.375C74.3957 95.375 79.4791 90.2916 79.4791 84.0208C79.4791 77.7501 74.3957 72.6667 68.125 72.6667C61.8542 72.6667 56.7708 77.7501 56.7708 84.0208C56.7708 90.2916 61.8542 95.375 68.125 95.375Z" fill="#FFB74D"/>
</svg>
